<svg width="31" height="28" viewBox="0 0 31 28" fill="none" xmlns="http://www.w3.org/2000/svg">
<path d="M7.10746 1.05896e-05C7.06599 -0.000371119 7.02507 0.00957189 6.98839 0.0289439C6.95172 0.0483159 6.92044 0.0765081 6.89738 0.11098C6.87431 0.145452 6.86019 0.185121 6.85628 0.226412C6.85236 0.267703 6.85878 0.30932 6.87496 0.347511L7.01871 0.686886L9.56246 6.61814C9.57975 6.65848 9.60735 6.69356 9.64249 6.71985C9.67764 6.74614 9.71908 6.76271 9.76266 6.76791C9.80624 6.7731 9.85042 6.76673 9.89076 6.74944C9.9311 6.73214 9.96618 6.70453 9.99246 6.66939L14.6875 0.400011C14.7153 0.362868 14.7323 0.318702 14.7365 0.272462C14.7406 0.226222 14.7318 0.179734 14.7111 0.138207C14.6903 0.0966808 14.6584 0.0617565 14.6189 0.0373479C14.5794 0.0129393 14.5339 1.05896e-05 14.4875 1.05896e-05H7.10746ZM25.7456 1.62876L23.1656 7.65189C23.1494 7.68991 23.1428 7.73137 23.1465 7.77254C23.1503 7.81372 23.1641 7.85333 23.1869 7.88782C23.2097 7.92231 23.2407 7.95062 23.2771 7.9702C23.3135 7.98978 23.3542 8.00002 23.3956 8.00001H29.7081C29.7527 8.00003 29.7964 7.98813 29.8349 7.96555C29.8733 7.94297 29.905 7.91052 29.9267 7.87157C29.9483 7.83262 29.9592 7.78859 29.9581 7.74403C29.9571 7.69947 29.9441 7.656 29.9206 7.61814L26.1875 1.59564C26.1633 1.55686 26.1291 1.52543 26.0883 1.50476C26.0476 1.48409 26.002 1.47497 25.9565 1.47839C25.911 1.4818 25.8672 1.49762 25.83 1.52413C25.7929 1.55064 25.7637 1.58682 25.7456 1.62876ZM4.81246 1.59814L1.08059 7.61814C1.05707 7.656 1.04411 7.69947 1.04305 7.74403C1.04198 7.78859 1.05285 7.83262 1.07452 7.87157C1.09619 7.91052 1.12789 7.94297 1.16632 7.96555C1.20474 7.98813 1.24851 8.00003 1.29309 8.00001H7.60559C7.64696 7.99996 7.68767 7.98965 7.72407 7.96999C7.76047 7.95033 7.79143 7.92195 7.81416 7.88739C7.8369 7.85282 7.8507 7.81316 7.85433 7.77195C7.85796 7.73073 7.8513 7.68927 7.83496 7.65126L5.24996 1.63126C5.23147 1.59037 5.20232 1.5552 5.16556 1.52946C5.1288 1.50372 5.08578 1.48835 5.04103 1.48496C4.99628 1.48157 4.95145 1.49029 4.91123 1.51021C4.87101 1.53012 4.83689 1.56049 4.81246 1.59814ZM24.0793 1.05896e-05H16.2387C16.2161 -0.000135756 16.1939 0.00605066 16.1746 0.0178703C16.1553 0.0296899 16.1397 0.0466713 16.1295 0.0668942C16.1194 0.087117 16.1151 0.109775 16.1172 0.132305C16.1192 0.154835 16.1276 0.176339 16.1412 0.194386L21.1362 6.84814C21.149 6.86523 21.166 6.87865 21.1856 6.88706C21.2052 6.89547 21.2266 6.89856 21.2478 6.89603C21.269 6.89349 21.2891 6.88542 21.3062 6.87262C21.3232 6.85982 21.3366 6.84275 21.345 6.82314L23.975 0.687511L24.1875 0.166261C24.195 0.148369 24.198 0.128929 24.1963 0.109605C24.1947 0.0902811 24.1883 0.0716497 24.1779 0.0553065C24.1674 0.0389634 24.1532 0.0253956 24.1363 0.0157653C24.1195 0.00613493 24.1006 0.000728988 24.0812 1.05896e-05H24.0793ZM14.4375 26L8.84809 10.1569C8.83168 10.1109 8.80141 10.0711 8.76145 10.043C8.72149 10.0149 8.67381 9.99988 8.62496 10H1.10621C1.06266 9.99989 1.01994 10.012 0.982936 10.035C0.945929 10.0579 0.916119 10.0908 0.896902 10.1299C0.877684 10.169 0.869833 10.2127 0.874241 10.256C0.878649 10.2994 0.895141 10.3406 0.921836 10.375L14.4218 27.8631C14.4675 27.9223 14.5327 27.9634 14.6058 27.9791C14.679 27.9947 14.7553 27.984 14.8212 27.9488C14.8875 27.9139 14.9391 27.8563 14.9665 27.7865C14.994 27.7168 14.9954 27.6395 14.9706 27.5688L14.4375 26ZM29.8937 10H22.375C22.3264 10 22.279 10.0151 22.2393 10.0432C22.1997 10.0713 22.1698 10.111 22.1537 10.1569L16.0162 27.5419C15.9904 27.6149 15.9915 27.6947 16.0192 27.7669C16.0469 27.8392 16.0995 27.8992 16.1675 27.9363C16.2354 27.9731 16.3143 27.9846 16.39 27.9687C16.4656 27.9527 16.5332 27.9105 16.5806 27.8494L30.0781 10.375C30.1048 10.3406 30.1213 10.2994 30.1257 10.256C30.1301 10.2127 30.1222 10.169 30.103 10.1299C30.0838 10.0908 30.054 10.0579 30.017 10.035C29.98 10.012 29.9373 9.99989 29.8937 10ZM15.7 2.93314L19.2 7.60001C19.2278 7.63715 19.2448 7.68132 19.249 7.72756C19.2531 7.7738 19.2443 7.82029 19.2236 7.86181C19.2028 7.90334 19.1709 7.93826 19.1314 7.96267C19.0919 7.98708 19.0464 8.00001 19 8.00001H12C11.9535 8.00001 11.908 7.98708 11.8685 7.96267C11.829 7.93826 11.7971 7.90334 11.7764 7.86181C11.7556 7.82029 11.7468 7.7738 11.751 7.72756C11.7551 7.68132 11.7721 7.63715 11.8 7.60001L15.3 2.93314C15.3232 2.90209 15.3534 2.87689 15.3882 2.85953C15.4229 2.84217 15.4611 2.83314 15.5 2.83314C15.5388 2.83314 15.5771 2.84217 15.6118 2.85953C15.6465 2.87689 15.6767 2.90209 15.7 2.93314ZM15.2625 22.3275L11.0312 10.3331C11.0179 10.2954 11.0139 10.2551 11.0194 10.2155C11.0249 10.176 11.0398 10.1383 11.0629 10.1056C11.086 10.073 11.1165 10.0464 11.152 10.028C11.1875 10.0096 11.2269 10 11.2668 10H19.7331C19.7731 10 19.8124 10.0096 19.8479 10.028C19.8834 10.0464 19.914 10.073 19.937 10.1056C19.9601 10.1383 19.975 10.176 19.9805 10.2155C19.9861 10.2551 19.982 10.2954 19.9687 10.3331L15.7356 22.3275C15.7183 22.3762 15.6864 22.4183 15.6442 22.4482C15.602 22.478 15.5516 22.494 15.5 22.494C15.4483 22.494 15.3979 22.478 15.3557 22.4482C15.3135 22.4183 15.2816 22.3762 15.2643 22.3275H15.2625Z" fill="black"/>
</svg>
