<svg width="24" height="26" viewBox="0 0 24 26" fill="none" xmlns="http://www.w3.org/2000/svg">
<path fill-rule="evenodd" clip-rule="evenodd" d="M19.8132 0.00800922C20.0123 0.0299457 20.204 0.096478 20.3739 0.202662C20.5438 0.308846 20.6875 0.451951 20.7945 0.621343C25.0612 7.37734 24.4172 14.5493 20.8532 19.0667C19.0732 21.3213 16.5732 22.8947 13.6572 23.36C11.1132 23.764 8.33319 23.312 5.53186 21.8453C5.27453 22.6573 5.09186 23.4453 4.98653 24.188C4.93529 24.5369 4.74793 24.8513 4.46547 25.0623C4.18301 25.2734 3.82844 25.364 3.47934 25.3143C3.13025 25.2646 2.81507 25.0786 2.60277 24.797C2.39046 24.5155 2.29833 24.1613 2.34653 23.812C2.53174 22.5748 2.84544 21.3602 3.28253 20.188C1.23319 17.9347 0.673192 15.084 0.922526 12.5373C1.19719 9.72801 2.47853 7.03334 4.14653 5.64268C6.37586 3.78534 8.71719 3.02268 10.7492 2.64934C11.6372 2.49566 12.5314 2.37955 13.4292 2.30134C14.0679 2.23734 14.7199 2.19468 15.3439 2.04001C16.2675 1.81667 17.1503 1.44952 17.9599 0.952009C18.5492 0.584009 19.0519 -0.0773241 19.8132 0.00800922ZM6.53319 19.3573C8.01586 16.3347 10.4399 13.4373 13.5959 11.8587C13.7539 11.7812 13.895 11.6733 14.0111 11.5411C14.1272 11.4088 14.216 11.2549 14.2723 11.0882C14.3287 10.9215 14.3514 10.7453 14.3393 10.5697C14.3272 10.3942 14.2805 10.2228 14.2019 10.0653C14.1232 9.90794 14.0142 9.76765 13.881 9.65259C13.7479 9.53752 13.5933 9.44994 13.4261 9.39491C13.259 9.33988 13.0826 9.31848 12.9072 9.33194C12.7317 9.3454 12.5607 9.39346 12.4039 9.47334C8.92653 11.212 6.26253 14.2187 4.53053 17.4253C4.87478 17.9863 5.30183 18.492 5.79719 18.9253C6.0443 19.0791 6.28875 19.2231 6.53319 19.3573Z" fill="black"/>
</svg>
